<?xml version="1.0" standalone="no"?>
<!DOCTYPE svg PUBLIC "-//W3C//DTD SVG 20010904//EN"
 "http://www.w3.org/TR/2001/REC-SVG-20010904/DTD/svg10.dtd">
<svg version="1.0" xmlns="http://www.w3.org/2000/svg"
 width="840.000000pt" height="681.000000pt" viewBox="0 0 840.000000 681.000000"
 preserveAspectRatio="xMidYMid meet">

<g transform="translate(0.000000,681.000000) scale(0.100000,-0.100000)"
fill="#000000" stroke="none">
<path d="M3788 6370 c-18 -31 -48 -48 -137 -75 -57 -17 -108 -55 -196 -142
-29 -29 -57 -53 -64 -53 -6 0 -19 -17 -30 -37 -10 -21 -31 -49 -46 -63 -15
-14 -37 -48 -50 -76 -12 -28 -34 -60 -49 -71 -15 -12 -35 -45 -46 -77 -10 -31
-32 -73 -49 -93 -16 -21 -37 -63 -46 -93 -9 -30 -23 -68 -32 -85 -45 -82 -54
-107 -65 -166 -6 -35 -25 -102 -43 -149 -36 -94 -50 -178 -66 -415 -6 -88 -12
-162 -14 -165 -12 -20 -13 -139 -1 -237 29 -234 40 -497 29 -673 -9 -151 -13
-171 -42 -240 -19 -45 -37 -107 -43 -155 -14 -113 -42 -152 -128 -183 -36 -13
-77 -34 -91 -48 -14 -14 -50 -34 -80 -45 -30 -11 -70 -37 -90 -57 -20 -20 -47
-47 -60 -59 -64 -58 -109 -112 -126 -153 -11 -25 -32 -62 -46 -83 -14 -21 -31
-64 -37 -95 -7 -31 -18 -79 -26 -107 -7 -27 -14 -54 -15 -60 -1 -5 -6 -21 -11
-35 -5 -14 -14 -45 -19 -70 -17 -74 -27 -549 -17 -740 9 -160 13 -184 44 -275
19 -55 39 -128 45 -163 10 -66 28 -112 59 -147 9 -11 23 -36 30 -55 17 -44 98
-135 153 -172 23 -15 52 -35 64 -44 34 -24 159 -44 328 -52 133 -6 154 -10
181 -30 18 -12 56 -27 85 -33 85 -17 159 -39 159 -48 0 -21 93 -43 220 -53
145 -10 227 -32 267 -70 24 -22 31 -23 211 -23 l187 0 6 60 c4 33 2 116 -3
185 -11 165 -90 625 -123 720 -14 41 -33 102 -41 135 -9 33 -31 85 -51 115
-100 158 -155 238 -192 280 -17 19 -45 55 -63 79 -18 24 -37 49 -42 56 -18 24
4 83 49 133 25 28 45 60 45 72 0 30 -34 86 -84 137 -94 96 -186 218 -212 278
-22 53 -42 391 -26 444 13 41 49 90 154 210 65 72 70 76 125 86 54 10 59 13
76 49 15 31 22 37 39 33 58 -16 76 42 29 95 -30 35 -100 169 -120 230 -7 21
-28 56 -46 78 -18 22 -41 64 -51 92 -9 29 -30 71 -45 93 -15 22 -37 72 -47
110 -11 39 -32 95 -47 125 -25 50 -48 156 -97 450 -15 91 4 272 36 344 22 50
28 55 82 75 31 12 73 34 93 50 20 15 57 40 84 55 26 15 47 31 47 35 0 5 22 23
49 40 50 32 188 174 223 229 24 39 50 48 86 29 15 -8 58 -31 95 -51 38 -20 83
-47 100 -60 18 -13 50 -29 72 -36 22 -7 67 -27 100 -45 33 -18 85 -40 115 -50
30 -9 75 -30 100 -46 26 -16 84 -37 134 -49 176 -41 270 -124 297 -263 13 -67
12 -364 -1 -507 -8 -80 -18 -131 -39 -183 -16 -39 -36 -108 -45 -151 -9 -43
-29 -102 -45 -130 -16 -28 -37 -73 -46 -101 -10 -27 -33 -70 -50 -95 -45 -63
-105 -186 -105 -215 0 -13 6 -39 14 -57 8 -18 19 -58 26 -89 18 -91 31 -99
161 -99 124 0 136 -6 177 -86 19 -37 20 -50 12 -214 -10 -188 -24 -333 -41
-418 -12 -59 -28 -81 -217 -292 -94 -105 -101 -146 -32 -201 43 -35 67 -92 54
-132 -4 -12 -23 -41 -43 -63 -43 -50 -85 -108 -128 -178 -17 -28 -43 -65 -57
-82 -14 -18 -33 -49 -42 -69 -8 -20 -30 -60 -49 -88 -21 -32 -42 -84 -55 -137
-12 -47 -30 -109 -41 -138 -30 -84 -36 -121 -63 -397 -14 -143 -28 -278 -30
-300 -3 -22 0 -73 7 -114 l11 -73 91 4 c86 4 92 5 120 35 36 36 91 50 240 58
145 8 172 13 255 52 50 23 102 37 154 44 59 7 89 17 120 38 63 43 96 49 311
54 110 3 212 10 227 16 15 6 51 26 79 46 28 19 57 35 64 35 6 0 39 31 72 68
56 62 62 74 77 145 9 43 22 85 30 92 25 25 45 97 56 204 6 58 22 145 35 195
36 145 49 286 42 474 -4 107 -11 182 -21 209 -8 23 -24 104 -36 180 -31 196
-47 264 -71 289 -11 12 -29 51 -40 87 -12 39 -34 83 -54 107 -19 23 -35 46
-35 52 0 11 -141 148 -153 148 -4 0 -25 18 -47 40 -23 24 -49 40 -62 40 -66 0
-159 55 -189 112 -24 45 -41 204 -43 408 0 14 6 103 14 198 8 109 11 243 7
360 -6 187 -6 187 -42 277 -39 95 -41 108 -64 426 -8 112 -15 148 -40 210 -16
41 -37 111 -45 157 -11 60 -24 96 -46 125 -16 23 -37 66 -45 95 -9 29 -29 67
-44 85 -15 17 -36 55 -45 83 -9 28 -30 64 -47 80 -17 16 -40 46 -50 67 -22 41
-43 66 -197 222 -56 57 -115 111 -131 120 -17 8 -36 23 -43 33 -7 11 -29 27
-48 37 -19 10 -51 32 -71 50 -25 23 -51 34 -85 40 -74 11 -112 30 -135 70
l-21 35 -301 0 -302 0 -17 -30z"/>
</g>
</svg>
