<?xml version="1.0" standalone="no"?>
<!DOCTYPE svg PUBLIC "-//W3C//DTD SVG 20010904//EN"
 "http://www.w3.org/TR/2001/REC-SVG-20010904/DTD/svg10.dtd">
<svg version="1.0" xmlns="http://www.w3.org/2000/svg"
 width="360.000000pt" height="360.000000pt" viewBox="0 0 360.000000 360.000000"
 preserveAspectRatio="xMidYMid meet">

<g transform="translate(0.000000,360.000000) scale(0.100000,-0.100000)"
fill="#000000" stroke="none">
<path d="M1047 2985 c-8 -8 -55 -49 -103 -91 -108 -94 -198 -172 -228 -199
-13 -11 -62 -53 -110 -94 -48 -41 -94 -87 -101 -102 -24 -45 -38 -161 -26
-221 19 -101 17 -99 107 -104 43 -3 86 -7 94 -11 8 -3 40 -5 70 -5 l55 0 -50
-8 c-34 -5 -12 -6 70 -5 79 2 108 1 85 -5 -24 -6 -6 -7 60 -5 59 2 76 0 45 -4
-65 -8 304 -32 420 -27 65 3 71 2 30 -4 -35 -5 -13 -7 70 -5 79 2 103 0 70 -5
-37 -5 -42 -7 -18 -8 83 -5 577 -38 684 -47 l56 -5 96 130 c53 71 109 148 124
172 15 24 31 45 34 48 15 12 129 180 129 189 0 6 -13 11 -30 11 -16 0 -30 -4
-30 -9 0 -4 12 -6 27 -3 25 5 24 1 -32 -79 -33 -46 -62 -86 -65 -89 -3 -3 -19
-25 -35 -50 -17 -25 -38 -54 -47 -64 -10 -11 -18 -26 -18 -33 0 -7 -4 -13 -8
-13 -5 0 -26 -26 -48 -57 -21 -32 -51 -71 -66 -88 -16 -16 -28 -33 -28 -37 0
-5 -39 -7 -87 -6 -49 0 -74 3 -58 5 22 3 36 14 53 41 12 20 28 46 35 56 143
222 233 366 270 429 l46 77 -41 0 c-23 0 -39 -3 -35 -6 6 -6 -34 -72 -226
-379 l-106 -170 -113 7 c-62 3 -210 13 -328 22 -118 9 -381 27 -585 41 -575
40 -606 42 -618 54 -6 6 -13 51 -15 99 -4 75 -1 97 17 137 l21 48 68 -6 c37
-4 406 -27 820 -53 736 -46 753 -46 768 -28 25 33 133 183 252 349 l114 160
-99 8 c-107 8 -1286 57 -1370 57 -32 0 -57 -6 -66 -15z m161 -862 c-15 -2 -42
-2 -60 0 -18 2 -6 4 27 4 33 0 48 -2 33 -4z m135 -10 c-13 -2 -33 -2 -45 0
-13 2 -3 4 22 4 25 0 35 -2 23 -4z m400 -30 c-13 -2 -33 -2 -45 0 -13 2 -3 4
22 4 25 0 35 -2 23 -4z m206 -9 c8 -7 -104 -2 -134 6 -17 4 5 5 50 2 44 -2 82
-6 84 -8z m124 -11 c-13 -2 -35 -2 -50 0 -16 2 -5 4 22 4 28 0 40 -2 28 -4z"/>
<path d="M2610 2570 c0 -5 4 -10 9 -10 6 0 13 5 16 10 3 6 -1 10 -9 10 -9 0
-16 -4 -16 -10z"/>
<path d="M2642 2359 l3 -64 38 -3 c21 -2 37 -6 35 -10 -3 -8 -162 -249 -215
-327 -19 -27 -52 -77 -73 -110 -22 -33 -43 -65 -48 -70 -5 -6 -17 -23 -26 -37
-17 -26 -21 -27 -89 -24 -171 8 -288 19 -275 28 8 5 -1 6 -23 2 -34 -5 -254 7
-694 41 -104 8 -212 17 -238 20 -28 4 -46 2 -43 -3 3 -5 45 -12 93 -15 48 -4
171 -14 273 -22 102 -8 244 -20 315 -25 72 -5 245 -19 385 -30 140 -11 262
-20 270 -20 8 0 33 30 55 66 22 37 51 80 64 96 24 29 24 30 120 27 l96 -3 97
134 c103 142 124 172 203 285 26 39 55 78 63 88 8 9 13 19 11 22 -3 2 -94 7
-202 11 l-198 7 3 -64z"/>
<path d="M642 2092 c-16 -79 -15 -151 3 -203 9 -24 14 -48 11 -55 -5 -12 31
-18 195 -30 l86 -7 6 -51 c3 -28 10 -63 16 -78 10 -27 14 -28 78 -28 l68 0
-65 -58 c-35 -31 -108 -95 -160 -142 -109 -97 -204 -179 -238 -206 -47 -39
-68 -214 -37 -305 l15 -45 118 -12 c64 -7 137 -13 162 -14 l45 -1 -40 -7 c-25
-5 1 -7 70 -5 65 2 92 1 65 -3 -40 -7 -33 -8 56 -15 56 -4 133 -6 170 -3 51 4
61 3 39 -4 -21 -6 9 -8 95 -6 90 3 110 2 70 -4 -40 -6 -21 -7 70 -5 75 2 111
0 90 -5 -19 -4 -27 -8 -16 -9 478 -34 620 -42 661 -38 32 4 43 2 30 -3 -14 -6
1 -9 47 -9 36 -1 72 -3 80 -6 12 -4 47 41 247 321 62 85 80 104 100 104 18 0
33 10 47 33 135 204 220 334 223 342 2 6 16 28 31 50 44 65 100 153 100 158 0
2 -13 4 -30 5 -16 0 -30 -4 -30 -9 0 -6 5 -7 10 -4 15 9 12 -10 -7 -55 -10
-23 -23 -38 -30 -36 -8 3 -10 -1 -6 -11 4 -11 2 -14 -5 -9 -8 5 -10 2 -5 -10
5 -14 3 -15 -15 -5 -15 8 -22 8 -22 1 0 -5 7 -10 16 -10 8 0 12 -5 9 -10 -4
-6 -11 -8 -16 -5 -9 6 -11 1 -13 -27 -1 -7 -3 -15 -6 -18 -3 -3 -21 -31 -40
-62 -20 -35 -38 -54 -43 -49 -11 11 0 34 13 26 4 -3 10 4 13 15 10 38 -30 3
-56 -49 -13 -28 -28 -47 -32 -43 -5 4 -5 1 -1 -5 4 -7 3 -13 -1 -13 -17 0 -34
-40 -24 -58 13 -24 -10 -57 -28 -39 -10 9 -11 6 -6 -18 7 -28 6 -28 -7 -11
-14 17 -15 17 -32 -9 -21 -31 -7 -31 -326 -5 -96 8 -136 8 -138 1 -2 -6 -18
-10 -35 -10 l-32 1 30 7 c24 6 17 9 -43 15 -40 5 -76 5 -79 2 -4 -3 12 -6 35
-6 23 0 42 -4 42 -9 0 -13 -70 -2 -97 15 -14 9 -47 13 -85 13 -54 -2 -58 -3
-28 -9 29 -6 26 -7 -15 -4 -27 2 -77 4 -110 5 -50 1 -54 3 -25 8 29 5 18 9
-62 19 -53 6 -125 11 -160 10 -49 -1 -54 -2 -20 -5 23 -2 42 -8 42 -14 0 -9
-38 -6 -120 8 l-35 6 30 7 c25 7 22 8 -21 9 -28 0 -80 3 -115 5 -50 4 -55 3
-24 -3 36 -7 33 -8 -30 -10 -96 -1 -209 10 -193 20 7 4 9 11 6 15 -4 4 -19 -1
-34 -10 -14 -10 -27 -16 -29 -14 -31 37 -47 134 -35 218 13 93 27 120 59 119
l26 -1 -24 -7 c-13 -3 -26 -13 -27 -21 -2 -8 -8 -33 -13 -55 -16 -60 -13 -149
5 -195 17 -42 41 -57 28 -17 -26 82 -30 154 -11 227 l12 45 151 0 c84 0 147
-3 140 -7 -7 -5 -3 -8 9 -8 34 0 474 -30 600 -40 230 -19 756 -53 759 -49 46
58 306 421 306 428 0 5 3 11 8 13 9 4 62 82 62 91 0 16 -19 6 -25 -13 -4 -11
-11 -17 -17 -14 -6 4 -8 2 -4 -4 3 -5 -5 -24 -19 -40 -14 -16 -25 -35 -25 -41
0 -7 -8 -11 -17 -9 -13 2 -17 -3 -16 -17 1 -11 -10 -35 -24 -53 -20 -27 -28
-31 -35 -21 -7 11 -8 9 -4 -4 8 -24 -21 -67 -40 -60 -10 4 -12 0 -8 -10 3 -9
-3 -26 -15 -38 -12 -13 -21 -27 -21 -31 0 -5 -5 -6 -10 -3 -8 5 -8 11 -1 19
16 19 -9 47 -36 40 -22 -6 -41 -34 -23 -34 6 0 10 5 10 10 0 6 9 10 20 10 11
0 20 -7 20 -15 0 -8 -7 -15 -15 -15 -8 0 -15 -4 -15 -10 0 -5 7 -7 15 -4 38
15 1 -60 -74 -152 -6 -8 -22 -9 -43 -5 -27 6 -33 11 -31 32 2 21 1 22 -8 6 -5
-9 -7 -22 -4 -27 3 -6 -3 -10 -15 -10 l-22 0 23 38 c13 20 37 56 53 79 17 23
44 64 61 90 16 26 67 106 113 176 46 70 86 136 89 145 4 9 15 29 25 44 10 14
18 29 18 32 0 3 -20 6 -45 6 -32 0 -43 -3 -39 -13 4 -12 -22 -58 -191 -332
-109 -177 -134 -215 -143 -215 -5 0 -166 11 -358 25 -192 13 -387 27 -434 30
-47 3 -240 17 -430 30 -190 14 -359 25 -377 25 -26 0 -33 5 -42 31 -6 18 -11
47 -11 64 l0 33 -67 6 c-38 3 -107 8 -156 12 -48 3 -85 9 -82 14 3 4 -2 27
-10 50 -19 53 -19 127 -1 203 10 42 10 57 2 57 -7 0 -17 -26 -24 -58z m681
-479 c-7 -2 -21 -2 -30 0 -10 3 -4 5 12 5 17 0 24 -2 18 -5z m240 -20 c-7 -2
-21 -2 -30 0 -10 3 -4 5 12 5 17 0 24 -2 18 -5z m60 0 c-7 -2 -19 -2 -25 0 -7
3 -2 5 12 5 14 0 19 -2 13 -5z m130 -10 c-13 -2 -35 -2 -50 0 -16 2 -5 4 22 4
28 0 40 -2 28 -4z m150 -10 c-13 -2 -33 -2 -45 0 -13 2 -3 4 22 4 25 0 35 -2
23 -4z m130 -10 c-13 -2 -33 -2 -45 0 -13 2 -3 4 22 4 25 0 35 -2 23 -4z m154
-9 c-3 -3 -12 -4 -19 -1 -8 3 -5 6 6 6 11 1 17 -2 13 -5z m286 -21 c-7 -2 -21
-2 -30 0 -10 3 -4 5 12 5 17 0 24 -2 18 -5z m170 -10 c-7 -2 -21 -2 -30 0 -10
3 -4 5 12 5 17 0 24 -2 18 -5z m302 -113 c3 -5 1 -10 -4 -10 -6 0 -11 5 -11
10 0 6 2 10 4 10 3 0 8 -4 11 -10z m-39 -64 c-14 -21 -27 -32 -31 -26 -4 6 5
23 19 37 14 14 23 30 19 37 -4 8 -3 8 6 0 10 -9 7 -20 -13 -48z m-1403 -73
c-13 -2 -33 -2 -45 0 -13 2 -3 4 22 4 25 0 35 -2 23 -4z m336 -19 c8 -8 -95
-2 -119 7 -16 5 1 6 45 2 39 -3 72 -7 74 -9z m967 -58 c-4 -17 -11 -23 -21
-20 -8 4 -15 11 -15 16 0 6 7 8 15 4 8 -3 14 -2 14 2 -3 17 2 35 7 29 4 -3 4
-17 0 -31z m-1376 -31 c399 -25 763 -46 809 -48 l85 -2 23 35 24 35 72 -4 c40
-1 74 -4 75 -6 2 -2 -29 -57 -69 -122 -40 -65 -88 -144 -107 -176 -20 -33 -42
-61 -49 -64 -15 -6 -233 7 -573 32 -107 8 -364 26 -570 40 -206 14 -403 28
-437 31 l-62 6 -12 50 c-14 60 -7 155 15 199 9 17 13 36 10 41 -3 5 5 6 18 3
12 -2 349 -25 748 -50z m963 48 c-7 -2 -21 -2 -30 0 -10 3 -4 5 12 5 17 0 24
-2 18 -5z m262 -23 c13 -6 15 -9 5 -9 -8 0 -22 4 -30 9 -18 12 -2 12 25 0z
m21 -30 c36 0 44 -3 44 -19 0 -10 -7 -24 -15 -31 -8 -6 -31 -37 -51 -68 -21
-32 -53 -75 -71 -96 -18 -22 -33 -46 -33 -53 0 -7 -4 -13 -8 -13 -5 0 -24 -22
-43 -50 -19 -27 -37 -50 -41 -50 -5 0 -8 -7 -8 -15 0 -11 -13 -15 -53 -15 -30
0 -57 3 -60 6 -9 9 3 29 108 189 51 77 98 151 105 165 18 35 51 62 68 55 7 -3
34 -5 58 -5z m-1478 -327 c-16 -2 -40 -2 -55 0 -16 2 -3 4 27 4 30 0 43 -2 28
-4z m585 -40 c-13 -2 -35 -2 -50 0 -16 2 -5 4 22 4 28 0 40 -2 28 -4z m145
-10 c-15 -2 -42 -2 -60 0 -18 2 -6 4 27 4 33 0 48 -2 33 -4z m145 -10 c-13 -2
-35 -2 -50 0 -16 2 -5 4 22 4 28 0 40 -2 28 -4z m135 -10 c-10 -2 -26 -2 -35
0 -10 3 -2 5 17 5 19 0 27 -2 18 -5z"/>
<path d="M2535 2080 c-3 -5 -1 -10 4 -10 6 0 11 5 11 10 0 6 -2 10 -4 10 -3 0
-8 -4 -11 -10z"/>
<path d="M2511 2037 c-13 -21 -12 -21 5 -5 10 10 16 20 13 22 -3 3 -11 -5 -18
-17z"/>
<path d="M3010 2020 c-6 -11 -7 -20 -1 -20 5 0 12 7 15 16 3 8 10 13 14 10 5
-3 30 -1 58 3 l49 9 -62 1 c-53 1 -64 -2 -73 -19z"/>
<path d="M3040 1970 c-7 -17 -22 -37 -34 -45 -18 -13 -18 -15 -3 -15 10 0 24
15 34 35 9 19 20 35 25 35 4 0 8 5 8 10 0 21 -18 9 -30 -20z"/>
<path d="M2460 1965 c-7 -9 -10 -18 -7 -21 3 -3 10 4 17 15 13 25 8 27 -10 6z"/>
<path d="M2926 1881 c-18 -25 -18 -25 0 -8 17 16 19 16 31 -5 8 -15 12 -17 12
-8 0 8 -5 22 -12 31 -11 15 -14 14 -31 -10z"/>
<path d="M2406 1883 c-6 -14 -5 -15 5 -6 7 7 10 15 7 18 -3 3 -9 -2 -12 -12z"/>
<path d="M3001 1881 c-8 -6 -9 -11 -3 -15 6 -3 14 -1 17 5 9 14 2 20 -14 10z"/>
<path d="M723 1843 c9 -2 23 -2 30 0 6 3 -1 5 -18 5 -16 0 -22 -2 -12 -5z"/>
<path d="M848 1833 c6 -2 18 -2 25 0 6 3 1 5 -13 5 -14 0 -19 -2 -12 -5z"/>
<path d="M898 1833 c6 -2 18 -2 25 0 6 3 1 5 -13 5 -14 0 -19 -2 -12 -5z"/>
<path d="M963 1823 c15 -2 39 -2 55 0 15 2 2 4 -28 4 -30 0 -43 -2 -27 -4z"/>
<path d="M1115 1814 c71 -12 175 -20 168 -13 -5 5 -51 10 -103 13 -52 2 -81 2
-65 0z"/>
<path d="M1378 1793 c12 -2 32 -2 45 0 12 2 2 4 -23 4 -25 0 -35 -2 -22 -4z"/>
<path d="M2346 1792 c-3 -5 1 -9 9 -9 8 0 12 4 9 9 -3 4 -7 8 -9 8 -2 0 -6 -4
-9 -8z"/>
<path d="M2871 1784 c0 -11 3 -14 6 -6 3 7 2 16 -1 19 -3 4 -6 -2 -5 -13z"/>
<path d="M1533 1783 c9 -2 25 -2 35 0 9 3 1 5 -18 5 -19 0 -27 -2 -17 -5z"/>
<path d="M1618 1773 c12 -2 32 -2 45 0 12 2 2 4 -23 4 -25 0 -35 -2 -22 -4z"/>
<path d="M1773 1763 c15 -2 37 -2 50 0 12 2 0 4 -28 4 -27 0 -38 -2 -22 -4z"/>
<path d="M1908 1753 c12 -2 30 -2 40 0 9 3 -1 5 -23 4 -22 0 -30 -2 -17 -4z"/>
<path d="M2043 1743 c9 -2 25 -2 35 0 9 3 1 5 -18 5 -19 0 -27 -2 -17 -5z"/>
<path d="M2208 1728 c17 -8 26 -8 34 0 9 9 4 12 -22 11 -33 0 -34 -1 -12 -11z"/>
<path d="M3101 1699 c-7 -12 -10 -23 -8 -26 3 -3 11 5 17 17 15 28 8 35 -9 9z"/>
<path d="M2808 1683 c6 -2 12 -11 12 -19 0 -8 5 -14 11 -14 6 0 8 7 5 16 -3 9
-6 18 -6 20 0 2 -8 4 -17 3 -11 0 -13 -3 -5 -6z"/>
<path d="M2850 1645 c-7 -9 -11 -18 -8 -20 3 -3 11 1 18 10 7 9 11 18 8 20 -3
3 -11 -1 -18 -10z"/>
<path d="M3003 1553 c-10 -16 -21 -31 -26 -34 -5 -4 -4 -9 1 -13 6 -3 13 3 17
14 3 11 10 20 15 20 4 0 10 9 13 20 7 27 1 25 -20 -7z"/>
<path d="M1190 1309 c0 -10 113 -17 135 -9 13 5 -8 9 -58 11 -42 2 -77 1 -77
-2z"/>
<path d="M2835 1300 c-4 -6 -3 -16 3 -22 13 -13 23 4 13 21 -7 10 -10 10 -16
1z"/>
<path d="M1938 1253 c12 -2 30 -2 40 0 9 3 -1 5 -23 4 -22 0 -30 -2 -17 -4z"/>
<path d="M2807 979 c8 -8 -4 -33 -42 -89 -29 -43 -55 -84 -57 -92 -4 -10 -8
-10 -24 2 -18 14 -18 14 -5 -3 11 -14 11 -21 3 -29 -14 -14 -16 -28 -4 -28 4
0 20 21 36 48 16 26 49 77 73 113 47 73 52 89 26 89 -12 0 -14 -3 -6 -11z"/>
<path d="M771 837 c-9 -23 -22 -90 -35 -184 -2 -12 0 -20 4 -18 4 3 13 -15 20
-40 10 -36 17 -45 42 -50 16 -4 32 -4 35 -1 4 3 -4 6 -16 6 -45 0 -66 129 -40
250 12 56 6 78 -10 37z"/>
<path d="M2637 764 c-10 -11 -9 -26 2 -20 27 17 11 -28 -37 -104 -30 -47 -62
-97 -71 -113 -9 -15 -21 -25 -28 -23 -8 3 -10 -1 -6 -11 4 -11 2 -14 -5 -9 -8
4 -10 2 -6 -7 3 -8 -5 -27 -18 -42 l-24 -27 -204 17 c-227 18 -401 31 -560 41
-57 4 -96 10 -85 14 15 5 13 8 -14 13 -46 10 -73 7 -36 -4 17 -4 -27 -6 -105
-2 -139 5 -173 12 -130 24 17 5 7 7 -30 7 -47 0 -51 -2 -25 -9 33 -9 -125 -4
-235 9 l-65 7 45 5 c25 3 -17 5 -92 5 -76 0 -138 -3 -138 -7 0 -5 9 -8 20 -8
11 0 249 -18 528 -40 498 -39 581 -45 951 -75 102 -9 188 -12 191 -8 4 5 42
64 86 133 43 69 81 127 85 130 3 3 13 19 22 35 12 25 13 35 3 53 -7 12 -15 19
-19 16z"/>
<path d="M2505 559 c-4 -6 -5 -12 -2 -15 2 -3 7 2 10 11 7 17 1 20 -8 4z"/>
<path d="M893 543 c9 -2 23 -2 30 0 6 3 -1 5 -18 5 -16 0 -22 -2 -12 -5z"/>
<path d="M1108 523 c12 -2 32 -2 45 0 12 2 2 4 -23 4 -25 0 -35 -2 -22 -4z"/>
<path d="M1378 503 c12 -2 30 -2 40 0 9 3 -1 5 -23 4 -22 0 -30 -2 -17 -4z"/>
<path d="M1448 493 c7 -3 16 -2 19 1 4 3 -2 6 -13 5 -11 0 -14 -3 -6 -6z"/>
<path d="M1633 483 c9 -2 25 -2 35 0 9 3 1 5 -18 5 -19 0 -27 -2 -17 -5z"/>
<path d="M1788 473 c12 -2 32 -2 45 0 12 2 2 4 -23 4 -25 0 -35 -2 -22 -4z"/>
<path d="M1913 463 c15 -2 39 -2 55 0 15 2 2 4 -28 4 -30 0 -43 -2 -27 -4z"/>
<path d="M2008 453 c7 -3 16 -2 19 1 4 3 -2 6 -13 5 -11 0 -14 -3 -6 -6z"/>
<path d="M2435 449 c-4 -6 -5 -12 -2 -15 2 -3 7 2 10 11 7 17 1 20 -8 4z"/>
<path d="M2200 440 c130 -13 222 -17 208 -9 -7 3 -76 9 -153 12 -109 4 -121 3
-55 -3z"/>
</g>
</svg>
