<?xml version="1.0" standalone="no"?>
<!DOCTYPE svg PUBLIC "-//W3C//DTD SVG 20010904//EN"
 "http://www.w3.org/TR/2001/REC-SVG-20010904/DTD/svg10.dtd">
<svg version="1.0" xmlns="http://www.w3.org/2000/svg"
 width="310.000000pt" height="329.000000pt" viewBox="0 0 310.000000 329.000000"
 preserveAspectRatio="xMidYMid meet">

<g transform="translate(0.000000,329.000000) scale(0.100000,-0.100000)"
fill="#000000" stroke="none">
<path d="M2370 3176 c0 -16 -11 -44 -25 -61 -13 -18 -21 -35 -18 -39 4 -3 1
-6 -6 -6 -7 0 -9 -4 -6 -10 3 -5 -5 -15 -19 -22 -14 -6 -26 -15 -26 -21 0 -5
-8 -6 -17 -3 -10 4 -14 4 -10 0 4 -4 -6 -14 -21 -22 -97 -52 -158 -82 -172
-83 -8 -1 -4 -4 10 -8 23 -7 21 -9 -20 -20 -25 -7 -69 -21 -98 -32 -60 -22
-70 -23 -56 -9 5 5 34 19 64 29 39 14 48 20 30 20 -16 1 -36 15 -55 37 -16 20
-45 51 -62 70 -18 19 -33 41 -33 49 0 11 -6 12 -23 6 -15 -6 -26 -4 -36 6 -11
13 -9 19 19 47 24 26 28 35 17 39 -14 5 -52 -26 -52 -41 0 -4 -6 -7 -13 -7 -7
0 -17 -6 -21 -14 -7 -10 -22 -12 -65 -7 -31 4 -56 12 -56 17 0 5 -7 9 -16 9
-8 0 -13 -4 -10 -9 4 -5 -10 -5 -32 0 -49 11 -127 11 -181 -2 -24 -5 -46 -7
-49 -4 -3 2 10 8 29 12 34 7 34 7 -16 14 -76 11 -117 10 -110 -1 4 -6 -6 -10
-22 -11 -46 -2 -80 -7 -192 -28 -158 -30 -161 -30 -161 -21 0 5 -13 4 -30 -1
-16 -6 -27 -15 -24 -20 3 -5 -5 -5 -19 0 -14 5 -56 11 -95 12 -39 2 -68 7 -66
11 3 4 0 8 -5 8 -6 0 -12 -21 -13 -47 -3 -68 -2 -82 9 -133 5 -26 6 -55 3 -65
-4 -11 -3 -25 2 -32 5 -7 6 -18 2 -25 -5 -7 -9 -26 -10 -41 -2 -39 -17 -51
-67 -56 -10 -1 -40 -71 -33 -78 2 -3 9 5 16 16 16 30 31 26 25 -6 -5 -26 -5
-26 4 -5 11 24 30 30 32 10 6 -78 4 -97 -9 -86 -10 9 -16 8 -22 -2 -6 -9 -2
-19 11 -28 11 -7 16 -18 12 -25 -4 -7 -8 -26 -9 -44 0 -18 -6 -38 -11 -45 -6
-7 -7 -22 -3 -33 6 -18 7 -18 17 -1 11 21 33 14 33 -10 0 -8 5 -12 10 -9 22
14 42 -17 35 -53 -4 -19 -1 -54 6 -77 l12 -42 23 26 22 26 7 -26 c4 -15 -1
-65 -9 -112 -19 -101 -12 -132 32 -142 40 -8 65 -38 65 -77 0 -30 1 -30 10
-10 12 26 15 26 42 6 17 -12 18 -17 7 -35 -8 -12 -9 -18 -4 -15 17 10 65 -13
59 -29 -4 -8 2 -16 12 -20 29 -9 31 -47 4 -75 -13 -13 -23 -20 -23 -14 0 5
-10 10 -21 11 -21 2 -21 1 -3 -13 18 -13 18 -15 2 -28 -20 -15 -24 -50 -5 -44
6 3 17 14 23 26 6 12 13 19 16 16 4 -3 9 3 12 14 4 11 31 43 61 71 30 29 62
64 71 79 8 15 13 19 10 9 -3 -10 -2 -15 4 -12 5 3 10 16 9 28 0 12 3 34 6 48
5 17 0 40 -14 67 -12 23 -21 48 -21 57 0 18 -4 18 -50 4 -36 -11 -141 -29
-173 -30 -9 0 -16 -3 -13 -7 10 -16 -44 -8 -60 9 -15 17 -16 24 -5 59 7 22 9
46 5 53 -5 6 1 5 11 -3 17 -14 18 -13 12 9 -5 20 0 25 34 40 21 9 39 19 39 23
0 13 -87 78 -106 78 -14 0 -15 3 -6 12 17 17 15 39 -5 53 -13 9 -13 14 -3 20
8 5 11 4 7 -2 -9 -14 43 -24 63 -12 13 7 12 8 -3 9 -10 0 -29 7 -42 16 -13 9
-30 12 -36 8 -7 -4 -9 -3 -5 4 3 6 1 14 -5 18 -6 3 -15 0 -20 -7 -6 -11 -10
-9 -15 6 -6 14 -1 24 21 39 16 12 51 41 78 66 43 39 48 48 42 75 -16 77 -17
102 -6 151 15 64 28 75 53 44 21 -26 23 -22 7 14 -7 14 -15 24 -18 22 -4 -3
-5 14 -3 36 3 28 7 36 13 27 7 -11 9 -10 9 4 0 34 25 11 57 -54 18 -35 33 -57
33 -49 0 10 10 5 27 -15 15 -16 30 -29 35 -27 5 1 13 -9 18 -23 5 -14 14 -25
20 -25 6 0 9 -4 6 -8 -3 -5 8 -16 25 -26 16 -9 29 -22 29 -27 0 -13 50 -81 67
-92 18 -11 39 -56 47 -99 4 -21 11 -38 16 -38 6 0 10 -8 10 -18 0 -10 9 -36
20 -57 11 -22 23 -58 27 -80 5 -31 8 -35 13 -20 4 11 5 26 3 32 -3 7 -1 13 5
13 13 0 52 -84 52 -111 0 -21 1 -21 19 -5 18 16 19 15 25 -47 6 -52 3 -73 -14
-117 -12 -29 -20 -63 -19 -74 3 -38 -1 -57 -9 -52 -10 6 -38 -131 -30 -140 3
-3 14 21 23 53 9 32 20 65 23 73 3 8 4 18 4 23 -1 4 2 7 8 7 5 0 10 7 10 16 0
29 23 94 33 94 5 0 8 -26 5 -62 l-5 -63 18 40 c18 42 19 40 4 -40 -2 -11 -4
-26 -4 -33 -1 -7 -4 -11 -8 -9 -5 3 -8 -9 -8 -26 0 -18 -4 -48 -8 -67 -4 -19
-4 -29 -1 -22 3 6 10 9 16 6 5 -3 12 3 15 15 3 11 9 18 14 15 5 -3 6 1 3 9 -3
8 -1 17 4 21 5 3 8 -33 8 -83 -1 -49 -4 -87 -7 -85 -4 2 -9 -20 -12 -48 -4
-28 -19 -83 -34 -121 -23 -58 -43 -87 -111 -158 -53 -56 -88 -86 -98 -82 -18
7 -18 4 2 -42 9 -22 54 -76 104 -124 71 -70 91 -96 104 -138 10 -29 16 -65 13
-80 -3 -24 -4 -23 -6 7 -1 38 -17 67 -63 116 -16 17 -30 38 -32 47 -3 22 -27
48 -38 41 -5 -3 -1 -13 9 -21 10 -8 4 -7 -16 4 -45 24 -83 61 -76 73 3 5 -4
14 -15 20 -11 6 -20 7 -20 3 0 -4 -5 0 -11 10 -11 19 -29 23 -29 7 0 -6 -11
-21 -25 -34 -14 -13 -25 -32 -25 -42 0 -20 20 -57 20 -38 0 6 7 11 15 11 8 0
12 -4 9 -8 -9 -15 22 -16 41 -1 11 9 -2 -7 -30 -36 -27 -29 -50 -52 -51 -52
-8 0 5 33 21 50 26 29 11 37 -17 8 -13 -13 -17 -17 -10 -8 19 26 14 35 -8 15
-17 -15 -23 -16 -33 -5 -7 7 -7 10 -1 7 6 -4 19 2 29 13 10 11 15 21 12 21 -4
1 -11 3 -17 4 -5 1 -13 3 -17 4 -3 0 4 12 17 26 13 14 21 28 17 31 -7 7 -67
-27 -67 -39 0 -4 -4 -6 -9 -3 -9 6 -129 -85 -143 -107 -11 -17 -10 -29 2 -22
6 4 3 -11 -5 -33 -9 -21 -15 -43 -14 -48 1 -5 1 -16 0 -24 -1 -13 -2 -13 -11
0 -16 25 -12 -46 5 -87 9 -20 35 -58 60 -84 31 -33 43 -54 39 -66 -5 -14 -4
-15 4 -4 18 25 99 -105 104 -166 2 -15 7 -22 16 -18 8 3 15 5 16 5 1 0 1 14
-2 30 -3 18 0 30 7 30 6 0 11 -9 11 -20 0 -11 5 -20 11 -20 7 0 20 -10 30 -22
11 -11 19 -16 19 -10 0 6 -4 14 -10 17 -13 8 -13 45 1 45 6 0 9 -6 6 -12 -2
-7 7 -26 19 -41 14 -17 24 -42 24 -60 0 -24 3 -28 10 -17 5 8 10 31 10 50 0
43 19 79 21 40 1 -21 2 -22 6 -5 3 11 14 31 26 45 l20 25 -6 -40 c-3 -23 1
-55 8 -75 l13 -35 1 37 c1 50 21 141 33 153 7 7 8 -6 4 -38 -5 -32 -4 -47 4
-47 6 0 8 -4 5 -10 -3 -6 1 -7 9 -4 9 3 15 9 14 12 -2 21 4 30 19 28 10 0 19
8 21 19 2 11 8 25 14 30 6 6 7 3 2 -9 -5 -13 -4 -17 4 -12 8 4 12 0 12 -11 1
-10 9 -36 20 -58 11 -22 19 -49 20 -59 0 -11 2 -17 5 -14 3 3 1 36 -5 74 -11
70 -7 119 10 109 5 -3 7 -12 3 -20 -3 -8 0 -15 6 -15 6 0 11 -6 11 -13 0 -8 8
-23 18 -35 9 -11 24 -30 32 -41 19 -27 31 -27 26 2 -3 12 -5 25 -5 30 -1 4 -6
6 -13 5 -7 -2 -13 16 -15 47 -2 28 -5 56 -8 63 -2 6 0 12 6 12 5 0 15 -13 20
-30 6 -17 18 -30 27 -30 15 0 15 -2 2 -10 -15 -10 -14 -10 22 -14 7 0 14 -10
15 -21 2 -11 0 -14 -3 -7 -3 6 -18 12 -32 12 -20 0 -23 -3 -12 -9 8 -6 17 -8
20 -6 11 7 8 -29 -4 -45 -10 -13 -9 -13 8 0 18 14 19 13 13 -2 -4 -12 -1 -18
9 -18 8 0 13 -4 9 -9 -3 -5 -1 -12 5 -16 13 -8 13 11 -1 36 -5 11 -7 29 -4 40
5 16 10 18 21 8 19 -15 17 -2 -5 45 -12 25 -20 34 -24 25 -4 -8 -4 0 0 16 7
38 12 47 23 40 4 -3 6 4 3 15 -3 11 0 20 6 20 6 0 11 7 11 15 0 9 6 18 14 21
8 3 18 19 21 35 6 26 15 34 38 30 4 -1 10 6 14 15 8 21 48 64 59 64 12 0 45
55 38 62 -11 12 29 30 64 30 80 -1 78 0 56 -17 -19 -14 -18 -14 4 -15 12 0 22
-6 22 -14 0 -8 4 -18 10 -21 5 -3 7 0 5 8 -6 15 26 57 45 57 8 0 10 -8 7 -21
-3 -12 0 -28 9 -36 8 -8 12 -19 9 -24 -4 -5 0 -6 8 -4 21 9 44 -26 51 -75 14
-121 31 -160 31 -77 1 76 11 137 25 150 8 7 11 8 7 1 -4 -7 0 -15 9 -18 30
-11 53 -6 59 14 3 11 12 20 18 20 7 0 18 9 25 20 10 16 18 19 40 13 31 -7 52
-26 52 -45 0 -7 4 -19 9 -27 6 -9 10 1 12 32 2 25 2 43 -1 41 -2 -3 -10 12
-17 33 -11 34 -12 35 -10 9 1 -16 -4 -31 -10 -33 -8 -3 -13 4 -13 16 0 11 -4
23 -10 26 -14 9 -12 17 11 45 14 16 19 19 15 7 -3 -9 -3 -17 -1 -17 10 0 45
40 45 51 0 8 5 8 15 -1 8 -7 15 -22 15 -34 0 -13 3 -16 8 -10 4 7 18 14 31 15
22 4 26 -1 39 -59 8 -34 17 -61 19 -59 2 2 4 33 4 69 1 56 -2 68 -24 92 -29
31 -41 85 -20 93 20 8 30 -6 13 -18 -11 -7 -5 -9 23 -6 20 3 37 1 37 -3 0 -4
18 -27 40 -50 l40 -43 -4 45 c-4 41 -2 45 15 41 10 -3 19 -9 19 -14 0 -5 7 -6
15 -3 8 3 27 -3 42 -14 15 -11 39 -22 53 -26 14 -3 19 -3 12 0 -6 3 -10 10 -6
15 3 5 0 9 -6 9 -12 0 -10 19 6 73 5 16 3 17 -14 6 -16 -10 -23 -10 -36 0 -9
7 -13 17 -10 23 3 5 -8 14 -24 20 -17 7 -37 25 -46 42 -9 17 -14 22 -11 12 6
-19 5 -19 -15 -1 -11 10 -20 20 -20 23 0 3 3 2 7 -1 4 -4 13 7 20 24 7 18 11
34 9 36 -2 3 -7 -5 -11 -16 -7 -23 -21 -27 -28 -8 -3 7 -6 4 -6 -6 -1 -14 -17
-3 -62 42 -33 33 -58 65 -54 71 3 6 11 8 16 5 5 -4 9 1 9 9 0 9 4 16 8 16 5 0
23 20 42 45 18 24 40 46 49 48 12 4 12 5 -3 6 -15 1 -16 4 -6 16 11 13 10 14
-3 9 -8 -3 -19 -13 -23 -22 -5 -12 -9 -4 -14 28 -6 37 -4 48 11 63 11 10 19
23 19 30 0 16 92 107 108 107 11 0 44 52 48 78 4 21 -5 13 -22 -20 -17 -33
-33 -49 -68 -69 -17 -10 -18 -8 -14 19 2 17 1 29 -4 26 -4 -3 -8 -12 -8 -20 0
-8 -8 -29 -17 -47 -24 -45 -29 -14 -9 55 22 75 51 117 91 134 19 8 35 17 35
19 0 7 -70 -23 -87 -36 -10 -9 -13 -4 -13 24 0 39 25 107 40 107 6 0 9 12 9
28 -2 24 -2 25 -6 4 -3 -15 -10 -22 -19 -18 -10 4 -14 -3 -14 -24 0 -40 -16
-46 -24 -8 -3 17 -14 37 -24 44 -16 12 -15 17 14 73 17 33 27 58 22 55 -4 -3
-17 -23 -28 -45 -20 -39 -50 -53 -50 -23 0 8 -13 27 -30 41 -16 13 -30 31 -30
38 0 7 -7 16 -16 19 -8 3 -12 2 -9 -4 9 -14 -1 -12 -17 3 -7 7 -25 18 -40 24
-28 13 -37 36 -18 48 5 3 21 -2 35 -11 24 -16 25 -16 24 7 0 13 -3 19 -5 12
-3 -7 -12 -9 -19 -6 -11 4 -12 10 -5 23 6 10 9 36 9 57 -2 37 -2 37 -8 -9 -7
-49 -21 -76 -21 -42 -1 13 -5 9 -15 -13 -13 -31 -35 -45 -35 -22 0 5 -5 7 -12
3 -6 -4 -8 -3 -5 2 12 20 -14 100 -36 113 -22 14 -22 14 -3 -7 13 -15 19 -38
20 -81 1 -40 6 -62 14 -66 9 -3 11 -13 6 -27 -6 -22 -6 -22 19 -5 15 9 30 17
34 17 4 0 2 -4 -5 -9 -10 -6 -3 -13 25 -24 43 -17 123 -90 123 -112 0 -11 -12
-15 -42 -14 -56 1 -77 10 -94 40 -7 13 -13 19 -14 13 0 -6 10 -24 22 -39 l22
-28 -24 6 c-14 4 -44 7 -68 7 -44 0 -43 -2 -67 68 -3 7 -10 10 -15 7 -8 -5 -7
-12 2 -22 7 -8 17 -25 23 -37 8 -16 22 -22 60 -26 l50 -6 -39 -17 c-21 -9 -43
-17 -48 -17 -5 0 -6 -5 -3 -10 5 -8 11 -8 19 -1 7 6 16 8 19 4 4 -3 7 -1 7 5
0 7 5 12 11 12 5 0 7 -6 3 -12 -4 -7 2 -4 14 6 27 23 173 36 196 17 30 -25 27
-70 -9 -139 -31 -60 -33 -68 -19 -83 11 -12 14 -27 9 -48 -6 -31 -25 -53 -25
-31 0 7 -6 10 -14 7 -8 -3 -17 -1 -19 6 -2 7 -8 9 -12 5 -4 -4 -3 -13 2 -20 6
-7 9 -20 8 -29 -6 -34 -17 -59 -26 -59 -13 0 -11 24 3 38 9 9 8 12 -7 12 -16
0 -17 2 -3 18 10 11 13 24 8 37 l-7 20 -5 -20 c-4 -12 -6 -4 -7 19 -1 43 -8
45 -13 6 -6 -47 -18 -54 -44 -29 -13 12 -24 29 -24 37 0 11 -3 12 -14 3 -11
-9 -16 -9 -22 0 -4 8 -3 9 4 5 8 -4 10 -2 6 8 -10 26 -35 7 -28 -21 5 -19 3
-24 -7 -21 -8 3 -14 13 -14 24 0 10 -6 23 -12 27 -7 4 -13 19 -13 32 0 16 -4
23 -13 19 -8 -3 -25 4 -38 15 -23 18 -23 20 -6 38 9 11 17 24 17 29 0 4 -7 -1
-15 -14 -14 -19 -22 -21 -75 -15 -47 4 -60 3 -60 -8 0 -7 -12 11 -27 40 -16
30 -38 61 -51 70 -71 50 -69 45 -27 71 21 13 44 23 51 23 7 0 11 3 9 6 -14 23
58 58 85 41 8 -5 21 -5 31 1 11 6 20 5 24 -1 10 -16 55 -12 55 4 0 8 -5 18
-12 22 -8 5 -9 2 -5 -9 5 -12 1 -17 -13 -17 -11 0 -20 4 -20 10 0 6 -24 8 -60
5 -33 -2 -60 -2 -60 1 0 13 34 54 45 54 6 0 17 12 23 26 7 14 8 23 3 19 -5 -3
-21 10 -36 29 -22 29 -24 37 -15 62 6 16 7 25 2 19 -5 -5 -14 -23 -19 -40 -26
-73 -26 -72 -33 -35 -3 19 -2 46 2 60 7 21 6 23 -4 10 -24 -28 -33 -19 -29 26
1 24 7 44 13 44 5 0 6 5 2 11 -3 6 7 25 22 42 16 17 21 25 12 18 -16 -12 -18
-10 -18 17 0 17 5 54 11 81 9 45 16 53 57 79 26 15 55 31 65 35 9 3 17 13 17
21 0 7 19 30 43 50 23 20 50 44 60 53 15 15 17 15 17 1 0 -9 -6 -18 -12 -20
-15 -5 -22 -136 -8 -158 12 -19 17 10 24 122 4 73 10 97 40 157 43 83 45 98
10 53 -14 -18 -29 -30 -33 -27 -4 2 -21 -10 -37 -28 -29 -31 -29 -32 -1 -8 41
37 32 10 -10 -31 -64 -60 -162 -117 -121 -70 10 12 16 41 16 92 1 100 1 97 11
81 8 -12 11 -9 16 11 4 15 4 31 1 37 -4 5 3 12 14 16 18 6 25 17 21 38 -1 5 7
23 18 40 25 42 72 159 66 165 -3 3 -5 -1 -5 -9 0 -11 -2 -11 -10 1 -7 12 -10
8 -10 -14z m-570 -40 c0 -2 -8 -10 -17 -17 -16 -13 -17 -12 -4 4 13 16 21 21
21 13z m-407 -63 c-7 -2 -19 -2 -25 0 -7 3 -2 5 12 5 14 0 19 -2 13 -5z m-83
-18 c0 -7 -30 -13 -34 -7 -3 4 4 9 15 9 10 1 19 0 19 -2z m515 -25 c3 -5 1
-10 -4 -10 -6 0 -11 5 -11 10 0 6 2 10 4 10 3 0 8 -4 11 -10z m-944 -27 c13
-15 12 -15 -6 -6 -11 6 -27 13 -35 16 -10 4 -8 6 6 6 12 1 28 -6 35 -16z m616
1 c-3 -3 -12 -4 -19 -1 -8 3 -5 6 6 6 11 1 17 -2 13 -5z m-37 -23 c0 -5 -7
-12 -16 -15 -14 -5 -15 -4 -4 9 14 17 20 19 20 6z m-550 -12 c0 -5 -4 -7 -10
-4 -5 3 -10 -2 -11 -12 0 -10 -3 -13 -6 -5 -2 6 -12 12 -21 12 -15 0 -15 2 -2
10 20 13 50 13 50 -1z m1390 7 c0 -3 -4 -8 -10 -11 -5 -3 -10 -1 -10 4 0 6 5
11 10 11 6 0 10 -2 10 -4z m-50 -56 c0 -5 -5 -10 -11 -10 -5 0 -7 5 -4 10 3 6
8 10 11 10 2 0 4 -4 4 -10z m-1363 -25 c18 -4 36 -11 39 -17 10 -16 -59 -4
-86 15 -21 16 -21 18 -5 14 11 -3 35 -8 52 -12z m702 -39 c-3 -3 -11 5 -18 17
-13 21 -12 21 5 5 10 -10 16 -20 13 -22z m627 -10 c-3 -13 -6 -60 -7 -104 -1
-75 -3 -82 -27 -98 l-25 -17 23 32 c23 33 23 54 0 26 -23 -28 -32 -17 -26 33
10 71 41 152 59 152 5 0 6 -11 3 -24z m-1391 -46 c-9 -18 -14 -41 -12 -52 3
-11 3 -17 -1 -14 -7 8 -43 -105 -38 -120 2 -5 -2 -39 -10 -75 l-13 -64 4 55
c4 45 3 51 -6 30 -6 -14 -8 -47 -5 -75 4 -34 2 -45 -4 -35 -8 12 -10 8 -11
-15 -1 -24 -3 -21 -9 14 -3 24 -3 69 2 100 5 31 6 72 3 91 -4 26 -3 31 4 20 9
-12 11 -10 12 10 1 29 27 102 29 80 0 -12 3 -12 11 2 5 10 8 20 7 22 -2 3 6
12 17 21 20 16 20 16 -2 6 -12 -6 -23 -16 -25 -23 -3 -9 -6 -9 -12 0 -4 7 8
21 31 35 21 14 39 23 41 22 2 -2 -4 -18 -13 -35z m768 -11 c-6 -6 -7 3 -4 23
4 28 6 29 9 9 2 -13 0 -27 -5 -32z m266 29 c-22 -21 -109 -70 -109 -61 0 4 16
20 35 36 50 40 110 60 74 25z m258 -91 c-3 -40 -9 -81 -13 -90 -6 -16 -43 -43
-48 -35 -8 12 -34 161 -30 173 6 15 25 22 68 24 l28 1 -5 -73z m-1157 51 c0
-7 -4 -19 -9 -26 -7 -11 -10 -10 -15 3 -3 9 -4 21 0 26 8 13 24 11 24 -3z
m589 -35 c-40 -47 -42 -49 -34 -33 10 19 47 60 53 60 3 0 -5 -12 -19 -27z m79
-136 c-6 -20 -15 -37 -20 -37 -4 0 -8 -9 -8 -19 0 -25 -20 -38 -31 -20 -5 9
-4 18 4 24 7 6 12 24 11 42 0 18 3 30 7 27 5 -3 9 -1 9 5 0 8 29 21 37 16 1 0
-3 -18 -9 -38z m739 6 c-3 -10 -5 -4 -5 12 0 17 2 24 5 18 2 -7 2 -21 0 -30z
m-477 -78 c0 -18 -20 -31 -55 -38 -16 -4 -24 -4 -17 -1 6 3 12 14 12 24 0 17
15 25 48 26 6 1 12 -5 12 -11z m-300 -57 c-1 -28 -2 -30 -11 -15 -6 9 -15 15
-21 11 -6 -4 -6 2 1 15 17 31 31 26 31 -11z m300 -3 c-14 -8 -32 -14 -40 -14
-9 0 -4 6 10 14 14 8 32 14 40 14 9 0 4 -6 -10 -14z m-69 -40 c-18 -8 -36 -15
-40 -15 -13 1 45 29 59 29 8 0 0 -6 -19 -14z m200 -136 c-9 -23 -10 -23 -10
-2 -1 12 2 30 6 40 6 15 8 15 11 2 1 -8 -2 -26 -7 -40z m-14 -49 c1 -11 -1
-20 -6 -20 -5 0 -12 -7 -15 -16 -6 -15 -4 -15 10 -3 15 12 16 9 13 -34 -2 -26
0 -49 6 -51 5 -2 0 -13 -12 -25 l-22 -21 -17 26 c-21 31 -20 113 2 156 17 32
35 27 41 -12z m86 -43 c7 -20 -1 -71 -12 -75 -12 -4 8 -42 22 -42 4 0 5 5 2
10 -3 6 -2 10 4 10 13 0 25 -45 16 -59 -3 -6 -12 -11 -18 -11 -7 -1 -32 -21
-57 -45 -25 -25 -48 -45 -52 -45 -4 0 -5 17 -2 38 4 20 7 50 8 66 1 33 22 46
29 19 4 -16 6 -15 12 5 4 12 15 23 24 23 14 1 14 2 -1 6 -14 4 -15 7 -2 31 7
15 11 39 9 54 -5 28 9 39 18 15z m79 -99 c-14 -15 -29 -25 -34 -22 -10 6 -10
31 0 37 4 2 1 2 -5 1 -18 -4 -16 12 3 41 l16 24 23 -27 23 -26 -26 -28z m-52
-86 c0 -10 -22 -32 -32 -32 -5 0 -3 9 4 20 13 20 28 27 28 12z m-1300 -156 c0
-3 -4 -8 -10 -11 -5 -3 -10 -1 -10 4 0 6 5 11 10 11 6 0 10 -2 10 -4z m1869
-94 c0 -9 -6 -35 -13 -57 -11 -38 -13 -39 -24 -19 -9 17 -8 30 6 62 17 40 33
47 31 14z m-444 -2 c4 -6 11 -7 17 -4 7 4 8 2 4 -4 -4 -7 6 -20 28 -32 35 -21
51 -45 40 -61 -3 -5 -1 -9 5 -9 6 0 15 -18 21 -40 6 -22 15 -38 20 -35 6 4 10
-1 10 -10 0 -11 5 -15 16 -11 8 3 13 2 10 -3 -3 -5 -17 -8 -31 -8 -13 0 -22 3
-20 7 9 14 -6 38 -26 43 -10 3 -22 0 -26 -5 -4 -7 -1 -8 7 -3 9 5 11 4 6 -4
-19 -30 -56 64 -48 119 2 11 1 12 -6 2 -7 -10 -14 -9 -33 5 -13 10 -33 23 -44
29 -33 18 -29 34 9 34 19 0 38 -5 41 -10z m-778 -112 c-3 -8 -6 -5 -6 6 -1 11
2 17 5 13 3 -3 4 -12 1 -19z m453 -12 c0 -2 -7 -7 -16 -10 -8 -3 -12 -2 -9 4
6 10 25 14 25 6z m523 -19 c7 3 9 3 5 -2 -4 -4 -3 -14 3 -21 6 -7 8 -18 4 -24
-9 -14 -28 -1 -21 16 3 7 1 16 -4 19 -10 6 -14 -9 -10 -30 1 -6 -4 -5 -10 1
-9 9 -8 17 2 33 7 12 14 17 16 11 2 -6 9 -7 15 -3z m47 -38 c0 -6 -4 -7 -10
-4 -5 3 -10 11 -10 16 0 6 5 7 10 4 6 -3 10 -11 10 -16z m15 -30 c-28 -29 -37
-11 -12 22 17 24 23 27 25 14 2 -9 -4 -25 -13 -36z m-715 38 c0 -2 -12 -14
-27 -28 l-28 -24 24 28 c23 25 31 32 31 24z m867 -49 c-3 -7 -5 -2 -5 12 0 14
2 19 5 13 2 -7 2 -19 0 -25z m-17 13 c0 -5 -7 -12 -16 -15 -14 -5 -15 -4 -4 9
14 17 20 19 20 6z m-144 -66 c-3 -8 -10 -15 -16 -15 -14 0 -12 37 3 43 15 5
21 -8 13 -28z m149 25 c3 -5 0 -7 -9 -4 -9 3 -17 -2 -21 -15 -5 -18 -45 -31
-45 -16 0 32 59 60 75 35z m-199 -57 c-9 -9 -46 -11 -46 -2 0 5 5 9 11 9 5 0
7 5 4 11 -4 6 2 5 13 -2 12 -7 20 -15 18 -16z m92 -18 c-3 -14 -2 -28 2 -30
12 -8 0 -43 -17 -50 -24 -8 -28 3 -10 23 21 23 21 32 2 32 -12 0 -13 4 -3 25
15 32 32 32 26 0z m77 -7 c-16 -55 -17 -64 -6 -48 6 8 11 12 11 8 0 -3 3 -13
6 -22 6 -16 -48 -77 -69 -75 -9 0 -9 2 1 6 6 2 10 8 7 13 -7 12 13 111 26 127
18 20 31 15 24 -9z m-781 4 c2 -4 -10 -9 -27 -9 -26 -2 -28 0 -12 7 26 11 33
12 39 2z m129 -6 c4 -10 1 -13 -9 -9 -8 3 -23 -2 -32 -10 -25 -22 -42 -8 -33
28 3 12 69 4 74 -9z m467 -16 c0 -5 -2 -10 -4 -10 -3 0 -8 5 -11 10 -3 6 -1
10 4 10 6 0 11 -4 11 -10z m-634 -27 c-7 -7 -26 7 -26 19 0 6 6 6 15 -2 9 -7
13 -15 11 -17z m82 4 c10 -8 10 -12 0 -18 -7 -4 -18 -3 -25 3 -9 7 -17 7 -28
-2 -9 -8 -15 -9 -15 -2 0 6 5 14 10 17 6 4 7 11 4 17 -8 12 34 1 54 -15z
m-141 -7 c14 -11 20 -20 13 -20 -9 0 -10 -3 -1 -13 8 -11 6 -13 -9 -12 -25 2
-33 10 -37 40 -4 30 1 31 34 5z m291 -26 c-11 -10 -107 -32 -113 -25 -4 3 13
11 37 17 48 13 84 17 76 8z m-343 -14 c-3 -5 -12 -10 -18 -10 -7 0 -6 4 3 10
19 12 23 12 15 0z m190 -29 c-4 -8 -55 -27 -155 -59 -8 -2 -4 3 9 13 13 10 49
26 80 35 67 22 74 23 66 11z m663 -10 c3 -8 -1 -12 -9 -9 -7 2 -15 10 -17 17
-3 8 1 12 9 9 7 -2 15 -10 17 -17z m-851 -17 c-3 -3 -12 -4 -19 -1 -8 3 -5 6
6 6 11 1 17 -2 13 -5z m-152 -24 c-3 -5 -11 -10 -16 -10 -6 0 -7 5 -4 10 3 6
11 10 16 10 6 0 7 -4 4 -10z m45 0 c0 -5 -2 -10 -4 -10 -3 0 -8 5 -11 10 -3 6
-1 10 4 10 6 0 11 -4 11 -10z m550 -59 c0 -10 -34 -8 -62 4 -20 8 -13 33 10
37 17 3 52 -25 52 -41z m-108 -46 c3 -13 1 -22 -3 -19 -9 5 -13 44 -5 44 2 0
6 -11 8 -25z m-495 -27 c-3 -8 -6 -5 -6 6 -1 11 2 17 5 13 3 -3 4 -12 1 -19z
m-127 -23 c-22 -21 -88 -46 -95 -35 -8 14 32 33 105 49 2 1 -2 -6 -10 -14z
m120 -32 c-11 -17 -11 -17 -6 0 3 10 6 24 7 30 0 9 2 9 5 0 3 -7 0 -20 -6 -30z
m-99 -10 c-12 -20 -14 -14 -5 12 4 9 9 14 11 11 3 -2 0 -13 -6 -23z m626 -3
c6 0 16 -7 23 -15 9 -11 16 -12 25 -5 6 5 15 6 20 2 4 -4 2 4 -5 18 -12 22
-11 24 2 13 8 -7 19 -9 23 -5 5 4 5 -1 2 -10 -10 -29 3 -20 14 8 14 38 18 27
9 -26 -4 -25 -8 -36 -9 -25 l-2 20 -9 -20 c-5 -11 -9 -14 -9 -6 -1 9 -9 12
-26 9 -19 -4 -34 4 -63 31 -21 20 -30 30 -22 24 9 -7 21 -13 27 -13z m42 6 c9
-11 9 -16 -1 -22 -7 -4 -10 -4 -6 1 4 4 3 14 -3 22 -6 7 -9 13 -6 13 2 0 10
-6 16 -14z m162 -4 c-13 -2 -27 0 -32 5 -6 6 3 7 23 4 28 -4 29 -6 9 -9z
m-861 -2 c0 -5 -9 -10 -21 -10 -11 0 -17 5 -14 10 3 6 13 10 21 10 8 0 14 -4
14 -10z m-35 -28 c-11 -11 -45 -12 -45 -1 0 5 5 7 10 4 6 -3 10 -2 10 4 0 6 7
8 15 4 9 -3 13 -8 10 -11z m1217 -17 c0 -5 -5 -11 -11 -13 -6 -2 -11 4 -11 13
0 9 5 15 11 13 6 -2 11 -8 11 -13z m-542 -20 c0 -5 -55 -35 -65 -35 -16 0 -1
20 23 28 32 12 42 14 42 7z m39 2 c-2 -1 -12 -9 -22 -16 -15 -12 -17 -12 -11
3 3 9 13 16 22 16 8 0 13 -1 11 -3z m203 -28 c-18 -21 -36 -12 -27 13 4 9 14
14 25 11 17 -5 17 -6 2 -24z m-1102 17 c0 -3 -4 -8 -10 -11 -5 -3 -10 -1 -10
4 0 6 5 11 10 11 6 0 10 -2 10 -4z m931 -23 c13 -17 13 -17 -6 -3 -11 8 -22
16 -24 17 -2 2 0 3 6 3 6 0 17 -8 24 -17z m606 -25 c-3 -8 -6 -5 -6 6 -1 11 2
17 5 13 3 -3 4 -12 1 -19z m-747 -24 c0 -2 -9 -4 -20 -4 -11 0 -20 4 -20 9 0
5 9 7 20 4 11 -3 20 -7 20 -9z m195 5 c11 -17 -1 -21 -15 -4 -8 9 -8 15 -2 15
6 0 14 -5 17 -11z m-819 -34 c18 -14 18 -15 -6 -11 -14 3 -29 5 -33 5 -10 1 1
21 12 21 4 0 16 -7 27 -15z m-372 -14 c3 -4 -3 -16 -14 -26 -20 -18 -25 -11
-14 19 7 18 20 21 28 7z m1586 -1 c0 -5 -5 -10 -11 -10 -5 0 -7 5 -4 10 3 6 8
10 11 10 2 0 4 -4 4 -10z m-1440 -14 c0 -2 -8 -10 -17 -17 -16 -13 -17 -12 -4
4 13 16 21 21 21 13z m119 -40 c10 -11 8 -16 -8 -21 -24 -7 -27 -25 -8 -45 9
-10 6 -10 -12 1 -40 25 -49 48 -27 65 25 18 40 18 55 0z m946 -16 c3 -5 1 -10
-4 -10 -6 0 -11 5 -11 10 0 6 2 10 4 10 3 0 8 -4 11 -10z m-981 -72 c16 -31
16 -31 -3 -14 -11 10 -25 15 -30 11 -15 -9 -14 8 1 23 16 16 14 17 32 -20z
m96 8 c0 -2 3 -12 7 -22 4 -12 3 -15 -5 -10 -7 4 -12 1 -13 -6 0 -7 -4 -4 -9
7 -13 29 -12 35 5 35 8 0 15 -2 15 -4z m-413 -48 c-3 -8 -6 -5 -6 6 -1 11 2
17 5 13 3 -3 4 -12 1 -19z m326 -29 c-5 -19 -23 -27 -23 -10 0 5 -3 16 -6 24
-4 12 0 14 14 10 14 -3 18 -11 15 -24z m264 -26 c-3 -10 -5 -4 -5 12 0 17 2
24 5 18 2 -7 2 -21 0 -30z m-198 13 c-2 -2 -15 -9 -29 -15 -24 -11 -24 -11 -6
3 16 13 49 24 35 12z m-9 -50 c0 -2 -7 -7 -16 -10 -8 -3 -12 -2 -9 4 6 10 25
14 25 6z"/>
<path d="M2301 1694 c0 -11 3 -14 6 -6 3 7 2 16 -1 19 -3 4 -6 -2 -5 -13z"/>
<path d="M2466 2963 c-6 -14 -5 -15 5 -6 7 7 10 15 7 18 -3 3 -9 -2 -12 -12z"/>
<path d="M863 2617 c-24 -11 -43 -25 -43 -30 0 -5 16 -25 35 -44 30 -30 33
-38 23 -51 -11 -12 -11 -16 0 -20 10 -3 10 -7 0 -20 -7 -9 -8 -13 -2 -9 6 3
19 0 30 -7 16 -12 17 -17 5 -42 l-13 -29 24 21 c40 36 52 40 45 15 -3 -12 0
-52 6 -89 l12 -67 6 61 c3 33 16 82 28 108 23 45 23 49 7 90 -9 24 -28 54 -43
67 -14 13 -23 18 -18 10 6 -10 3 -12 -12 -7 -11 4 -37 -1 -57 -9 -21 -9 -40
-14 -43 -12 -2 3 14 20 36 39 23 19 38 38 34 41 -9 10 -12 9 -60 -16z m112
-143 c-23 -17 -46 -18 -40 -1 3 6 17 13 32 14 26 1 27 0 8 -13z"/>
<path d="M2203 2455 c4 -33 13 -40 20 -15 3 11 1 20 -5 20 -5 0 -6 5 -3 10 3
6 1 10 -5 10 -6 0 -9 -11 -7 -25z"/>
<path d="M1196 2427 c3 -10 9 -15 12 -12 3 3 0 11 -7 18 -10 9 -11 8 -5 -6z"/>
<path d="M2213 2345 c0 -22 2 -30 4 -17 2 12 2 30 0 40 -3 9 -5 -1 -4 -23z"/>
<path d="M2412 2300 c0 -14 2 -19 5 -12 2 6 2 18 0 25 -3 6 -5 1 -5 -13z"/>
<path d="M2512 2300 c0 -14 2 -19 5 -12 2 6 2 18 0 25 -3 6 -5 1 -5 -13z"/>
<path d="M1222 2280 c0 -14 2 -19 5 -12 2 6 2 18 0 25 -3 6 -5 1 -5 -13z"/>
<path d="M1231 2246 c-11 -20 -12 -55 -7 -160 6 -121 5 -139 -12 -178 -11 -24
-23 -53 -26 -65 -7 -22 -93 -113 -107 -113 -25 0 -199 -185 -199 -212 0 -4 8
-8 18 -8 14 0 15 -2 2 -10 -9 -6 -11 -10 -3 -10 19 0 6 -24 -19 -35 -12 -6
-24 -16 -26 -24 -3 -8 0 -11 7 -7 6 4 11 0 11 -11 0 -15 2 -16 10 -3 8 13 10
13 10 -1 0 -9 6 -22 14 -28 12 -10 17 -8 26 9 6 11 8 26 4 32 -5 7 -3 8 6 3
10 -6 12 2 7 39 -4 30 -3 45 3 41 6 -4 8 -11 5 -16 -4 -5 0 -9 8 -9 23 0 36
-22 38 -67 2 -32 9 -44 31 -59 16 -11 28 -28 28 -41 0 -12 3 -24 8 -26 14 -9
83 44 94 71 6 17 12 22 15 14 3 -8 -11 -30 -31 -51 -20 -20 -36 -44 -36 -53 0
-9 -12 -26 -26 -37 -15 -12 -24 -21 -20 -21 18 0 124 66 152 94 35 35 76 94
57 83 -19 -12 -16 7 8 53 12 22 22 55 23 74 l1 33 -37 -30 c-21 -17 -38 -32
-38 -34 0 -2 7 -17 15 -33 9 -17 11 -30 6 -30 -5 0 -14 13 -21 30 -7 16 -15
28 -19 26 -3 -2 -7 12 -8 32 -2 31 -1 34 7 15 5 -13 13 -23 18 -23 13 0 62 54
62 69 0 7 4 10 9 6 23 -14 41 40 41 120 l0 80 -17 -33 c-12 -26 -14 -38 -5
-57 7 -15 8 -25 2 -25 -6 0 -11 -8 -11 -17 -1 -10 -5 -2 -9 17 -7 34 -7 33 -9
-14 -1 -65 -13 -52 -14 16 0 29 -2 42 -4 28 -3 -14 -9 -29 -15 -35 -12 -12 -1
71 14 98 5 10 7 21 4 24 -3 3 -10 -6 -15 -20 -5 -14 -20 -34 -32 -46 -18 -16
-23 -36 -28 -95 -6 -72 -21 -117 -21 -63 0 14 -3 33 -7 43 -6 16 -7 16 -13 -1
-4 -11 -7 2 -7 30 0 35 2 43 8 27 10 -27 14 -28 16 -4 1 14 27 96 61 192 11
31 13 62 3 56 -15 -9 -33 -74 -25 -87 4 -8 3 -9 -4 -5 -7 4 -12 17 -11 29 0
33 34 109 44 100 4 -4 5 -2 1 5 -4 6 -2 12 3 12 6 0 10 3 9 8 -1 4 2 17 6 30
4 12 0 70 -9 131 -10 60 -15 115 -12 123 2 7 10 -22 17 -65 7 -43 17 -80 22
-83 15 -10 2 87 -19 134 l-19 44 -13 -26z m16 -643 c-3 -10 -5 -4 -5 12 0 17
2 24 5 18 2 -7 2 -21 0 -30z m-70 -175 c-3 -8 -6 -5 -6 6 -1 11 2 17 5 13 3
-3 4 -12 1 -19z m67 -82 c-9 -15 -19 -25 -21 -22 -3 2 3 16 13 30 9 15 19 25
21 22 3 -2 -3 -16 -13 -30z"/>
<path d="M1140 2211 c0 -6 4 -13 10 -16 6 -3 7 1 4 9 -7 18 -14 21 -14 7z"/>
<path d="M2380 2210 c0 -5 5 -10 11 -10 5 0 7 5 4 10 -3 6 -8 10 -11 10 -2 0
-4 -4 -4 -10z"/>
<path d="M2215 2180 c3 -5 8 -10 11 -10 2 0 4 5 4 10 0 6 -5 10 -11 10 -5 0
-7 -4 -4 -10z"/>
<path d="M2747 2126 c-4 -10 -1 -13 8 -9 8 3 12 9 9 14 -7 12 -11 11 -17 -5z"/>
<path d="M2252 2090 c0 -14 2 -19 5 -12 2 6 2 18 0 25 -3 6 -5 1 -5 -13z"/>
<path d="M1085 1998 c-15 -31 -16 -41 -5 -67 17 -42 33 -28 27 23 -4 28 -3 35
3 21 11 -25 11 -1 1 35 -8 25 -8 25 -26 -12z"/>
<path d="M1147 2000 c-3 -11 -1 -20 4 -20 5 0 9 9 9 20 0 11 -2 20 -4 20 -2 0
-6 -9 -9 -20z"/>
<path d="M1126 1920 c-10 -30 -25 -68 -33 -84 -21 -40 3 -23 33 26 18 28 24
50 22 76 l-3 37 -19 -55z"/>
<path d="M2834 1882 c-11 -7 -38 -52 -31 -52 2 0 13 14 25 30 24 31 24 35 6
22z"/>
<path d="M2319 1843 c-13 -16 -12 -17 4 -4 9 7 17 15 17 17 0 8 -8 3 -21 -13z"/>
<path d="M2943 1809 c-6 -21 -7 -21 -21 -3 -13 18 -14 17 -9 -9 4 -25 3 -26
-12 -14 -9 8 -28 17 -44 21 -27 6 -27 6 -10 -12 10 -10 23 -18 30 -18 6 1 12
-3 12 -9 1 -5 -6 -10 -14 -10 -8 0 -20 -6 -26 -12 -10 -10 -6 -11 17 -7 16 3
33 9 39 15 12 12 25 12 25 -1 0 -5 -17 -18 -37 -29 -21 -11 -32 -20 -25 -21 8
0 27 9 43 21 21 15 28 26 24 40 -4 10 -2 19 3 19 5 0 12 11 14 25 6 31 -2 33
-9 4z"/>
<path d="M2785 1740 c-3 -5 -1 -10 4 -10 6 0 11 5 11 10 0 6 -2 10 -4 10 -3 0
-8 -4 -11 -10z"/>
<path d="M2365 1700 c-3 -5 -1 -10 4 -10 6 0 11 5 11 10 0 6 -2 10 -4 10 -3 0
-8 -4 -11 -10z"/>
<path d="M2910 1625 c-11 -13 -10 -14 4 -9 9 3 16 10 16 15 0 13 -6 11 -20 -6z"/>
<path d="M2867 1537 c-16 -31 -33 -58 -38 -61 -5 -2 -4 -3 3 -2 7 1 18 12 24
24 6 12 19 31 28 41 10 11 16 27 14 37 -2 11 -13 -2 -31 -39z"/>
<path d="M861 1536 c-7 -8 -8 -17 -3 -20 6 -3 13 1 16 10 9 23 2 28 -13 10z"/>
<path d="M2768 1463 c-10 -2 -18 -11 -18 -18 0 -7 -7 -21 -16 -29 -8 -9 -11
-16 -4 -16 6 0 15 11 22 25 6 13 23 29 37 34 26 10 11 13 -21 4z"/>
<path d="M1023 1237 c-36 -30 -118 -70 -102 -51 20 24 0 29 -24 6 -14 -14 -24
-34 -24 -51 0 -26 3 -28 23 -20 30 11 95 45 114 59 12 10 10 11 -10 6 -24 -5
-24 -4 -6 9 10 8 24 12 30 8 6 -3 8 -2 3 2 -4 5 3 19 15 32 28 30 18 30 -19 0z"/>
<path d="M835 1210 c-12 -19 5 -30 25 -17 11 6 20 15 20 19 0 12 -38 10 -45
-2z"/>
<path d="M994 1152 c-83 -44 -93 -55 -93 -93 1 -59 -6 -96 -19 -112 -8 -9 -12
-24 -10 -34 3 -14 8 -11 22 16 10 18 16 42 13 52 -3 10 0 17 5 16 6 -1 13 4
16 12 3 9 0 11 -8 6 -9 -5 -11 -4 -6 4 4 6 12 9 17 6 5 -3 6 1 3 9 -4 9 1 18
10 22 9 3 14 9 12 13 -3 4 4 7 14 8 24 2 17 -19 -21 -66 -16 -19 -26 -37 -24
-40 6 -6 42 35 72 84 14 22 39 55 56 73 32 33 31 39 -6 21 -21 -10 -21 -9 2
10 33 29 6 26 -55 -7z"/>
<path d="M1279 1008 c27 -31 19 -38 -11 -11 -14 12 -17 13 -13 2 7 -18 63 -50
69 -40 3 4 -11 23 -32 42 -25 23 -29 25 -13 7z"/>
<path d="M851 934 c0 -11 3 -14 6 -6 3 7 2 16 -1 19 -3 4 -6 -2 -5 -13z"/>
<path d="M1144 888 l-19 -23 23 19 c21 18 27 26 19 26 -2 0 -12 -10 -23 -22z"/>
<path d="M2222 430 c0 -19 2 -27 5 -17 2 9 2 25 0 35 -3 9 -5 1 -5 -18z"/>
<path d="M1126 303 c-9 -9 -7 -101 2 -107 5 -3 7 16 5 41 -3 29 0 49 7 53 7 5
8 10 2 13 -5 4 -12 4 -16 0z"/>
<path d="M1097 263 c8 -50 13 -55 13 -10 0 20 -4 38 -9 42 -6 3 -7 -10 -4 -32z"/>
<path d="M1420 276 c0 -8 4 -17 9 -20 5 -4 7 3 4 14 -6 23 -13 26 -13 6z"/>
<path d="M1661 268 c-1 -9 -4 -25 -7 -35 -5 -15 -4 -15 5 -3 9 12 11 9 12 -15
1 -16 3 -23 6 -13 2 9 0 31 -6 50 -5 18 -10 25 -10 16z"/>
</g>
</svg>
