<?xml version="1.0" standalone="no"?>
<!DOCTYPE svg PUBLIC "-//W3C//DTD SVG 20010904//EN"
 "http://www.w3.org/TR/2001/REC-SVG-20010904/DTD/svg10.dtd">
<svg version="1.0" xmlns="http://www.w3.org/2000/svg"
 width="360.000000pt" height="360.000000pt" viewBox="0 0 360.000000 360.000000"
 preserveAspectRatio="xMidYMid meet">

<g transform="translate(0.000000,360.000000) scale(0.100000,-0.100000)"
fill="#000000" stroke="none">
<path d="M1695 2888 c-82 -63 -345 -284 -425 -357 -82 -76 -80 -77 -80 49 l0
110 -170 0 -170 0 0 -264 0 -263 -195 -173 c-107 -95 -197 -181 -200 -191 -11
-34 28 -79 68 -79 8 0 89 63 179 141 244 211 777 670 817 704 19 17 88 76 152
133 65 56 124 102 131 102 7 0 76 -55 154 -123 77 -67 167 -144 199 -172 32
-27 145 -124 249 -215 105 -91 207 -179 227 -195 20 -17 114 -98 210 -180 214
-185 227 -195 250 -195 27 0 59 35 59 64 0 32 5 28 -791 721 -202 176 -473
403 -511 428 -44 28 -68 21 -153 -45z"/>
<path d="M1679 2583 c-135 -115 -810 -679 -860 -718 l-38 -30 0 -585 c-1 -352
3 -591 9 -600 8 -13 64 -15 400 -15 376 0 392 1 406 19 11 16 14 74 14 303 l0
283 195 0 195 0 0 -295 c0 -279 1 -295 19 -304 23 -13 769 -10 789 2 9 6 12
138 12 600 l0 592 -497 414 c-273 228 -506 416 -518 419 -16 3 -49 -20 -126
-85z"/>
</g>
</svg>
